<?xml version="1.0" standalone="no"?>
<!DOCTYPE svg PUBLIC "-//W3C//DTD SVG 20010904//EN"
 "http://www.w3.org/TR/2001/REC-SVG-20010904/DTD/svg10.dtd">
<svg version="1.0" xmlns="http://www.w3.org/2000/svg"
 width="260.000000pt" height="260.000000pt" viewBox="0 0 260.000000 260.000000"
 preserveAspectRatio="xMidYMid meet">
<metadata>
Created by potrace 1.14, written by Peter Selinger 2001-2017
</metadata>
<g transform="translate(0.000000,260.000000) scale(0.100000,-0.100000)"
fill="#000000" stroke="none">
<path d="M566 1974 c-9 -23 11 -56 169 -271 81 -109 186 -253 236 -320 49 -67
91 -127 94 -135 3 -7 -57 -86 -137 -179 -284 -331 -358 -420 -358 -434 0 -8
10 -17 23 -20 12 -3 296 -4 632 -3 l609 3 19 50 c10 28 31 86 47 130 26 73 56
152 75 197 13 31 -32 22 -49 -10 -32 -63 -116 -125 -206 -153 -93 -29 -267
-40 -568 -37 l-283 3 67 80 c38 44 133 155 211 247 79 92 143 173 143 180 0 8
-29 54 -66 103 -96 132 -200 274 -277 378 l-68 92 278 3 c153 2 323 -2 378 -8
192 -20 318 -77 379 -172 30 -46 49 -58 60 -39 4 5 -1 22 -9 38 -17 32 -45 97
-73 169 -11 27 -30 66 -42 87 l-22 37 -628 0 c-560 0 -629 -2 -634 -16z"/>
</g>
</svg>
